{
  "accessors": [
    {
      "bufferView": 2,
      "componentType": 5126,
      "count": 4223,
      "max": [
        1.0,
        -0.9536189436912537,
        0.668182373046875
      ],
      "min": [
        -1.0000003576278687,
        -1.0,
        -0.6660457253456116
      ],
      "type": "VEC3"
    },
    {
      "bufferView": 2,
      "byteOffset": 50676,
      "componentType": 5126,
      "count": 4223,
      "max": [
        1.0,
        1.0,
        1.0
      ],
      "min": [
        -1.0,
        -1.0,
        -1.0
      ],
      "type": "VEC3"
    },
    {
      "bufferView": 1,
      "componentType": 5126,
      "count": 4223,
      "max": [
        0.8750001788139343,
        1.0
      ],
      "min": [
        0.125,
        0.0
      ],
      "type": "VEC2"
    },
    {
      "bufferView": 0,
      "componentType": 5125,
      "count": 9927,
      "type": "SCALAR"
    },
    {
      "bufferView": 2,
      "byteOffset": 101352,
      "componentType": 5126,
      "count": 20,
      "max": [
        0.9130527973175049,
        -0.9536189436912537,
        0.5736086964607239
      ],
      "min": [
        -0.9130527973175049,
        -0.9536189436912537,
        -0.5736086964607239
      ],
      "type": "VEC3"
    },
    {
      "bufferView": 2,
      "byteOffset": 101592,
      "componentType": 5126,
      "count": 20,
      "max": [
        -8.672334850245988e-09,
        -1.0,
        -0.0
      ],
      "min": [
        -8.672334850245988e-09,
        -1.0,
        -0.0
      ],
      "type": "VEC3"
    },
    {
      "bufferView": 1,
      "byteOffset": 33784,
      "componentType": 5126,
      "count": 20,
      "max": [
        0.0,
        0.0
      ],
      "min": [
        0.0,
        0.0
      ],
      "type": "VEC2"
    },
    {
      "bufferView": 0,
      "byteOffset": 39708,
      "componentType": 5125,
      "count": 54,
      "type": "SCALAR"
    },
    {
      "bufferView": 2,
      "byteOffset": 101832,
      "componentType": 5126,
      "count": 75,
      "max": [
        0.9130474925041199,
        -0.959276020526886,
        0.5736033916473389
      ],
      "min": [
        -0.9130474925041199,
        -0.9592774510383606,
        -0.5736033916473389
      ],
      "type": "VEC3"
    },
    {
      "bufferView": 2,
      "byteOffset": 102732,
      "componentType": 5126,
      "count": 75,
      "max": [
        0.2576957941055298,
        1.0,
        0.2597751021385193
      ],
      "min": [
        -0.2576957941055298,
        0.9653557538986206,
        -0.2597751021385193
      ],
      "type": "VEC3"
    },
    {
      "bufferView": 1,
      "byteOffset": 33944,
      "componentType": 5126,
      "count": 75,
      "max": [
        0.9988551139831543,
        0.974443793296814
      ],
      "min": [
        0.0011448673903942108,
        0.0001673111692070961
      ],
      "type": "VEC2"
    },
    {
      "bufferView": 0,
      "byteOffset": 39924,
      "componentType": 5125,
      "count": 174,
      "type": "SCALAR"
    },
    {
      "bufferView": 2,
      "byteOffset": 103632,
      "componentType": 5126,
      "count": 20,
      "max": [
        -0.9502301812171936,
        -0.975341260433197,
        0.013311866670846939
      ],
      "min": [
        -0.9979473948478699,
        -0.975341260433197,
        -0.013311868533492088
      ],
      "type": "VEC3"
    },
    {
      "bufferView": 2,
      "byteOffset": 103872,
      "componentType": 5126,
      "count": 20,
      "max": [
        0.0,
        1.0,
        -0.0
      ],
      "min": [
        0.0,
        1.0,
        -0.0
      ],
      "type": "VEC3"
    },
    {
      "bufferView": 1,
      "byteOffset": 34544,
      "componentType": 5126,
      "count": 20,
      "max": [
        0.5079138875007629,
        0.17156842350959778
      ],
      "min": [
        0.5079138278961182,
        0.07843156158924103
      ],
      "type": "VEC2"
    },
    {
      "bufferView": 0,
      "byteOffset": 40620,
      "componentType": 5125,
      "count": 30,
      "type": "SCALAR"
    },
    {
      "bufferView": 2,
      "byteOffset": 104112,
      "componentType": 5126,
      "count": 518,
      "max": [
        -0.9481791257858276,
        -0.9753358364105225,
        0.023178914561867714
      ],
      "min": [
        -1.0,
        -0.978283166885376,
        -0.023178914561867714
      ],
      "type": "VEC3"
    },
    {
      "bufferView": 2,
      "byteOffset": 110328,
      "componentType": 5126,
      "count": 518,
      "max": [
        1.6946041796472855e-05,
        1.0,
        1.0
      ],
      "min": [
        -1.0,
        -1.0,
        -1.0
      ],
      "type": "VEC3"
    },
    {
      "bufferView": 1,
      "byteOffset": 34704,
      "componentType": 5126,
      "count": 518,
      "max": [
        0.5079431533813477,
        0.2060859650373459
      ],
      "min": [
        0.4920564889907837,
        0.043914031237363815
      ],
      "type": "VEC2"
    },
    {
      "bufferView": 0,
      "byteOffset": 40740,
      "componentType": 5125,
      "count": 930,
      "type": "SCALAR"
    },
    {
      "bufferView": 2,
      "byteOffset": 116544,
      "componentType": 5126,
      "count": 600,
      "max": [
        -0.9481775760650635,
        -0.9696435928344727,
        0.02887582592666149
      ],
      "min": [
        -0.9999985694885254,
        -0.983974039554596,
        -0.028875824064016342
      ],
      "type": "VEC3"
    },
    {
      "bufferView": 2,
      "byteOffset": 123744,
      "componentType": 5126,
      "count": 600,
      "max": [
        0.03328469395637512,
        1.0,
        1.0
      ],
      "min": [
        -1.0,
        -1.0,
        -1.0
      ],
      "type": "VEC3"
    },
    {
      "bufferView": 1,
      "byteOffset": 38848,
      "componentType": 5126,
      "count": 600,
      "max": [
        0.5386179685592651,
        0.22601021826267242
      ],
      "min": [
        0.4613816440105438,
        0.024004051461815834
      ],
      "type": "VEC2"
    },
    {
      "bufferView": 0,
      "byteOffset": 44460,
      "componentType": 5125,
      "count": 1149,
      "type": "SCALAR"
    }
  ],
  "asset": {
    "extras": {
      "author": "Nenked (https://sketchfab.com/nenked)",
      "license": "CC-BY-4.0 (http://creativecommons.org/licenses/by/4.0/)",
      "source": "https://sketchfab.com/3d-models/tablet-6dd89a14a2fa46f78a99138e0431565a",
      "title": "Tablet"
    },
    "generator": "Sketchfab-15.12.0",
    "version": "2.0"
  },
  "bufferViews": [
    {
      "buffer": 0,
      "byteLength": 49056,
      "name": "floatBufferViews",
      "target": 34963
    },
    {
      "buffer": 0,
      "byteLength": 43648,
      "byteOffset": 49056,
      "byteStride": 8,
      "name": "floatBufferViews",
      "target": 34962
    },
    {
      "buffer": 0,
      "byteLength": 130944,
      "byteOffset": 92704,
      "byteStride": 12,
      "name": "floatBufferViews",
      "target": 34962
    }
  ],
  "buffers": [
    {
      "byteLength": 223648,
      "uri": "scene.bin"
    }
  ],
  "extensionsUsed": [
    "KHR_materials_transmission"
  ],
  "images": [
    {
      "uri": "textures/Screen_baseColor.png"
    }
  ],
  "materials": [
    {
      "doubleSided": true,
      "name": "Material",
      "pbrMetallicRoughness": {
        "baseColorFactor": [
          0.0137844,
          0.0137844,
          0.0137844,
          1.0
        ],
        "metallicFactor": 0.0,
        "roughnessFactor": 0.118182
      }
    },
    {
      "alphaMode": "BLEND",
      "doubleSided": true,
      "extensions": {
        "KHR_materials_transmission": {
          "transmissionFactor": 1.0
        }
      },
      "name": "Glas",
      "pbrMetallicRoughness": {
        "baseColorFactor": [
          1.0,
          1.0,
          1.0,
          0.25
        ]
      }
    },
    {
      "doubleSided": true,
      "emissiveFactor": [
        1.0,
        1.0,
        1.0
      ],
      "emissiveTexture": {
        "index": 0
      },
      "name": "Screen",
      "pbrMetallicRoughness": {
        "baseColorTexture": {
          "index": 0
        },
        "metallicFactor": 0.0,
        "roughnessFactor": 0.5
      }
    },
    {
      "doubleSided": true,
      "name": "Konatakte",
      "pbrMetallicRoughness": {
        "baseColorFactor": [
          0.8,
          0.396888,
          6.69248e-05,
          1.0
        ],
        "roughnessFactor": 0.259091
      }
    },
    {
      "doubleSided": true,
      "name": "Material.001",
      "pbrMetallicRoughness": {
        "baseColorFactor": [
          0.0113074,
          0.0113074,
          0.0113074,
          1.0
        ],
        "metallicFactor": 0.0,
        "roughnessFactor": 0.5
      }
    },
    {
      "doubleSided": true,
      "name": "Silber",
      "pbrMetallicRoughness": {
        "baseColorFactor": [
          0.8,
          0.8,
          0.8,
          1.0
        ],
        "roughnessFactor": 0.418182
      }
    }
  ],
  "meshes": [
    {
      "name": "Object_0",
      "primitives": [
        {
          "attributes": {
            "NORMAL": 1,
            "POSITION": 0,
            "TEXCOORD_0": 2
          },
          "indices": 3,
          "material": 0,
          "mode": 4
        }
      ]
    },
    {
      "name": "Object_1",
      "primitives": [
        {
          "attributes": {
            "NORMAL": 5,
            "POSITION": 4,
            "TEXCOORD_0": 6
          },
          "indices": 7,
          "material": 1,
          "mode": 4
        }
      ]
    },
    {
      "name": "Object_2",
      "primitives": [
        {
          "attributes": {
            "NORMAL": 9,
            "POSITION": 8,
            "TEXCOORD_0": 10
          },
          "indices": 11,
          "material": 2,
          "mode": 4
        }
      ]
    },
    {
      "name": "Object_3",
      "primitives": [
        {
          "attributes": {
            "NORMAL": 13,
            "POSITION": 12,
            "TEXCOORD_0": 14
          },
          "indices": 15,
          "material": 3,
          "mode": 4
        }
      ]
    },
    {
      "name": "Object_4",
      "primitives": [
        {
          "attributes": {
            "NORMAL": 17,
            "POSITION": 16,
            "TEXCOORD_0": 18
          },
          "indices": 19,
          "material": 4,
          "mode": 4
        }
      ]
    },
    {
      "name": "Object_5",
      "primitives": [
        {
          "attributes": {
            "NORMAL": 21,
            "POSITION": 20,
            "TEXCOORD_0": 22
          },
          "indices": 23,
          "material": 5,
          "mode": 4
        }
      ]
    }
  ],
  "nodes": [
    {
      "children": [
        1
      ],
      "matrix": [
        1.0,
        0.0,
        0.0,
        0.0,
        0.0,
        2.220446049250313e-16,
        -1.0,
        0.0,
        0.0,
        1.0,
        2.220446049250313e-16,
        0.0,
        0.0,
        0.0,
        0.0,
        1.0
      ],
      "name": "Sketchfab_model"
    },
    {
      "children": [
        2
      ],
      "name": "root"
    },
    {
      "children": [
        3
      ],
      "matrix": [
        1.0,
        0.0,
        0.0,
        0.0,
        0.0,
        2.220446049250313e-16,
        1.0,
        0.0,
        0.0,
        -1.0,
        2.220446049250313e-16,
        0.0,
        0.0,
        0.0,
        0.0,
        1.0
      ],
      "name": "GLTF_SceneRootNode"
    },
    {
      "children": [
        4,
        5,
        6,
        7,
        8,
        9
      ],
      "matrix": [
        1.0,
        0.0,
        0.0,
        0.0,
        0.0,
        1.0,
        0.0,
        0.0,
        0.0,
        0.0,
        1.0,
        0.0,
        0.0,
        1.0,
        0.0,
        1.0
      ],
      "name": "Cube_0"
    },
    {
      "mesh": 0,
      "name": "Object_4"
    },
    {
      "mesh": 1,
      "name": "Object_5"
    },
    {
      "mesh": 2,
      "name": "Object_6"
    },
    {
      "mesh": 3,
      "name": "Object_7"
    },
    {
      "mesh": 4,
      "name": "Object_8"
    },
    {
      "mesh": 5,
      "name": "Object_9"
    }
  ],
  "samplers": [
    {
      "magFilter": 9729,
      "minFilter": 9987,
      "wrapS": 10497,
      "wrapT": 10497
    }
  ],
  "scene": 0,
  "scenes": [
    {
      "name": "Sketchfab_Scene",
      "nodes": [
        0
      ]
    }
  ],
  "textures": [
    {
      "sampler": 0,
      "source": 0
    }
  ]
}
