<?xml version="1.0" standalone="no"?>
<!DOCTYPE svg PUBLIC "-//W3C//DTD SVG 20010904//EN"
 "http://www.w3.org/TR/2001/REC-SVG-20010904/DTD/svg10.dtd">
<svg version="1.0" xmlns="http://www.w3.org/2000/svg"
 width="500.000000pt" height="434.000000pt" viewBox="0 0 500.000000 434.000000"
 preserveAspectRatio="xMidYMid meet">

<g transform="translate(0.000000,434.000000) scale(0.100000,-0.100000)"
fill="#000000" stroke="none">
<path d="M2556 3173 c-84 -11 -134 -25 -218 -59 -263 -108 -483 -357 -554
-628 -14 -53 -14 -60 0 -74 10 -10 16 -12 16 -4 0 6 7 9 15 6 8 -4 15 -1 15 5
0 6 17 48 39 93 21 46 41 93 45 106 4 12 29 49 54 81 26 33 65 82 87 111 22
28 61 67 87 86 26 19 68 53 95 74 79 66 238 129 378 151 66 10 149 19 183 19
84 0 79 21 -9 36 -82 15 -101 15 -233 -3z"/>
<path d="M2958 2788 c-44 -79 -76 -194 -59 -211 9 -9 14 -9 20 1 5 8 12 13 17
12 5 -1 16 17 25 42 8 24 30 72 49 106 l33 63 -25 25 -25 26 -35 -64z"/>
<path d="M2454 2771 c-109 -28 -246 -202 -248 -316 -1 -35 1 -39 24 -39 20 0
28 8 40 40 24 66 140 224 163 224 5 0 22 9 37 20 16 11 49 23 74 26 26 4 49
10 51 14 15 25 -83 46 -141 31z"/>
<path d="M3346 2437 c-14 -32 -26 -60 -26 -63 0 -13 -68 -103 -115 -153 -58
-62 -156 -115 -230 -125 -74 -10 -85 -20 -46 -41 69 -35 219 12 319 100 59 53
125 158 142 226 9 37 9 52 -3 80 l-15 34 -26 -58z"/>
<path d="M2609 2330 c-50 -67 -118 -141 -169 -185 -76 -67 -94 -78 -169 -101
-78 -24 -83 -28 -65 -41 34 -25 62 -26 135 -3 59 18 87 34 156 92 46 39 109
105 141 147 55 74 58 80 60 139 1 34 0 62 -2 62 -2 0 -41 -50 -87 -110z"/>
<path d="M2860 1764 c-6 -14 -10 -29 -10 -33 0 -4 -16 -26 -36 -49 -75 -88
-273 -156 -460 -157 -129 0 -130 -15 -4 -34 148 -23 365 25 482 106 60 41 102
152 62 167 -8 3 -12 10 -9 16 3 5 1 10 -5 10 -6 0 -15 -12 -20 -26z"/>
</g>
</svg>
